<svg xmlns="http://www.w3.org/2000/svg" xmlns:xlink="http://www.w3.org/1999/xlink" viewBox="0 0 15.99 15.97"><defs><style>.cls-1{fill:none;}.cls-2{opacity:0;}.cls-3{clip-path:url(#clip-path);}</style><clipPath id="clip-path" transform="translate(0 -0.01)"><rect class="cls-1" width="16" height="16"/></clipPath></defs><g id="图层_2" data-name="图层 2"><g id="图层_1-2" data-name="图层 1"><g class="cls-2"><g class="cls-3"><path d="M15,1V15H1V1H15m1-1H0V16H16V0Z" transform="translate(0 -0.01)"/></g></g><path d="M14.11,9.69,11.52,8.22a.48.48,0,0,0-.49,0L8.44,9.69a.48.48,0,0,0-.26.43V13a.51.51,0,0,0,.26.44L11,14.94a.53.53,0,0,0,.49,0l2.59-1.47a.48.48,0,0,0,.25-.43V10.12A.48.48,0,0,0,14.11,9.69Zm-2.2,2.46a.91.91,0,0,1-1.54-.64,1,1,0,0,1,.27-.64.89.89,0,0,1,.63-.26h0a.9.9,0,0,1,.9.9A.94.94,0,0,1,11.91,12.15Z" transform="translate(0 -0.01)"/><path d="M1.64,1.5v12a.5.5,0,0,0,.5.5H6.56a.5.5,0,0,0,.5-.5v-4a.52.52,0,0,1,.25-.44L11,7a.48.48,0,0,1,.49,0L13,7.78a.28.28,0,0,0,.25,0,.26.26,0,0,0,.13-.22V1.5a.5.5,0,0,0-.5-.5H2.14A.5.5,0,0,0,1.64,1.5ZM7.5,6.78A.25.25,0,0,1,7.25,7H3.8a.25.25,0,0,1-.25-.25v-.5A.25.25,0,0,1,3.8,6H7.25a.25.25,0,0,1,.25.25ZM11.06,4.3a.25.25,0,0,1-.25.25h-7a.25.25,0,0,1-.25-.25V3.8a.25.25,0,0,1,.25-.25h7a.25.25,0,0,1,.25.25Z" transform="translate(0 -0.01)"/></g></g></svg>