<svg xmlns="http://www.w3.org/2000/svg" xmlns:xlink="http://www.w3.org/1999/xlink" viewBox="0 0 16 16"><defs><style>.cls-1{opacity:0;}.cls-2{clip-path:url(#clip-path);}</style><clipPath id="clip-path" transform="translate(0)"><rect width="16" height="16"/></clipPath></defs><g id="图层_2" data-name="图层 2"><g id="图层_1-2" data-name="图层 1"><g class="cls-1"><rect width="16" height="16"/><g class="cls-2"><rect y="0.01" width="15.99" height="15.97"/></g></g><path d="M9.52,1V4.25a.4.4,0,0,0,.4.4h3.25Z" transform="translate(0)"/><rect x="12.57" y="10.13" width="2.43" height="4.87" rx="0.41"/><path d="M1,10.54v4.05a.41.41,0,0,0,.41.41H11.55a.41.41,0,0,0,.41-.41V10.54a.41.41,0,0,0-.41-.41H1.41A.41.41,0,0,0,1,10.54ZM3.74,13a.2.2,0,0,1-.2.21H2.72a.2.2,0,0,1-.2-.21v-.81a.2.2,0,0,1,.2-.21h.82a.2.2,0,0,1,.2.21Zm2,0a.2.2,0,0,1-.2.21H4.74a.2.2,0,0,1-.2-.21v-.81a.2.2,0,0,1,.2-.21h.82a.2.2,0,0,1,.2.21Z" transform="translate(0)"/><path d="M8.91,4.85V1.41A.41.41,0,0,0,8.5,1H3.23a.4.4,0,0,0-.4.41v7.7a.4.4,0,0,0,.4.41h9.54a.4.4,0,0,0,.4-.41V5.67a.4.4,0,0,0-.4-.41H9.32A.41.41,0,0,1,8.91,4.85ZM4,4.55a.21.21,0,0,1,.21-.21H7.08a.2.2,0,0,1,.2.21v.61a.2.2,0,0,1-.2.2H4.25A.2.2,0,0,1,4,5.16ZM11.86,7.8a.2.2,0,0,1-.2.2H4.25A.2.2,0,0,1,4,7.8V7.18A.2.2,0,0,1,4.25,7h7.41a.2.2,0,0,1,.2.2Z" transform="translate(0)"/></g></g></svg>